# xmcd
#
# Track frame offsets:
#	150
#	17176
#	35983
#	52795
#	70236
#	88849
#	106469
#	122780
#	148850
#	172547
#	189922
#	208909
#	225447
#	248697
#	269334
#	286542
#	307739
#
# Disc length: 4394 seconds
#
# Revision: 1
# Processed by: cddbd v1.4PL0 Copyright (c) Steve Scherf et al.
# Submitted via: audiograbber 1.80
#
DISCID=e5112811
DTITLE=Falco - The Final Curtain
DYEAR=1900
DGENRE=
TTITLE0=Push! Push!
TTITLE1=Rock me Amadeus
TTITLE2=Egoist (Remix)
TTITLE3=Kommissar 2000
TTITLE4=Helden von heute (Remix`99)
TTITLE5=No Time For Revolution
TTITLE6=Out of the Dark
TTITLE7=Jeanny
TTITLE8=Comming Home (Jeanny Part 2, Ein Jahr danach)
TTITLE9=Naked
TTITLE10=Vienna Calling
TTITLE11=Mutter, der Mann mit dem Koks ist da
TTITLE12=Ganz Wien
TTITLE13=Junge Römer
TTITLE14=Geld
TTITLE15=The Sound of Musik
TTITLE16=Emotional
EXTD=
EXTT0=
EXTT1=
EXTT2=
EXTT3=
EXTT4=
EXTT5=
EXTT6=
EXTT7=
EXTT8=
EXTT9=
EXTT10=
EXTT11=
EXTT12=
EXTT13=
EXTT14=
EXTT15=
EXTT16=
PLAYORDER=
